<svg xmlns="http://www.w3.org/2000/svg" viewBox="0 0 480 128" width="480" height="128">
  <rect x="0" y="0" width="128" height="128" rx="23" ry="23" fill="#0A0A0A"></rect>
  <g transform="translate(24 24) scale(10)">
    <rect x="4" y="0" width="1" height="1" fill="#FFFFFF"></rect>
    <rect x="5" y="0" width="1" height="1" fill="#FFFFFF"></rect>
    <rect x="6" y="0" width="1" height="1" fill="#7CFF5E"></rect>
    <rect x="4" y="1" width="1" height="1" fill="#FFFFFF"></rect>
    <rect x="5" y="1" width="1" height="1" fill="#FFFFFF"></rect>
    <rect x="6" y="1" width="1" height="1" fill="#FFFFFF"></rect>
    <rect x="5" y="2" width="1" height="1" fill="#FFFFFF"></rect>
    <rect x="6" y="2" width="1" height="1" fill="#FFFFFF"></rect>
    <rect x="5" y="3" width="1" height="1" fill="#FFFFFF"></rect>
    <rect x="6" y="3" width="1" height="1" fill="#FFFFFF"></rect>
    <rect x="5" y="4" width="1" height="1" fill="#FFFFFF"></rect>
    <rect x="6" y="4" width="1" height="1" fill="#FFFFFF"></rect>
    <rect x="0" y="5" width="1" height="1" fill="#FFFFFF"></rect>
    <rect x="1" y="5" width="1" height="1" fill="#FFFFFF"></rect>
    <rect x="5" y="5" width="1" height="1" fill="#FFFFFF"></rect>
    <rect x="6" y="5" width="1" height="1" fill="#FFFFFF"></rect>
    <rect x="0" y="6" width="1" height="1" fill="#FFFFFF"></rect>
    <rect x="1" y="6" width="1" height="1" fill="#FFFFFF"></rect>
    <rect x="2" y="6" width="1" height="1" fill="#FFFFFF"></rect>
    <rect x="3" y="6" width="1" height="1" fill="#FFFFFF"></rect>
    <rect x="4" y="6" width="1" height="1" fill="#FFFFFF"></rect>
    <rect x="5" y="6" width="1" height="1" fill="#FFFFFF"></rect>
    <rect x="6" y="6" width="1" height="1" fill="#FFFFFF"></rect>
    <rect x="1" y="7" width="1" height="1" fill="#FFFFFF"></rect>
    <rect x="2" y="7" width="1" height="1" fill="#FFFFFF"></rect>
    <rect x="3" y="7" width="1" height="1" fill="#FFFFFF"></rect>
    <rect x="4" y="7" width="1" height="1" fill="#FFFFFF"></rect>
    <rect x="5" y="7" width="1" height="1" fill="#FFFFFF"></rect>
  </g>
  <text x="152" y="92" font-family="Manrope, system-ui, sans-serif" font-weight="800" font-size="96" letter-spacing="-3.5" fill="#0A0A0A">ugalo</text>
</svg>