<svg xmlns="http://www.w3.org/2000/svg" viewBox="0 0 512 512" width="512" height="512">
  <rect x="0" y="0" width="512" height="512" rx="92" ry="92" fill="#FFFFFF"></rect>
  <g transform="translate(96 96) scale(40)">
    <rect x="4" y="0" width="1" height="1" fill="#0A0A0A"></rect>
    <rect x="5" y="0" width="1" height="1" fill="#0A0A0A"></rect>
    <rect x="6" y="0" width="1" height="1" fill="#0FBF3A"></rect>
    <rect x="4" y="1" width="1" height="1" fill="#0A0A0A"></rect>
    <rect x="5" y="1" width="1" height="1" fill="#0A0A0A"></rect>
    <rect x="6" y="1" width="1" height="1" fill="#0A0A0A"></rect>
    <rect x="5" y="2" width="1" height="1" fill="#0A0A0A"></rect>
    <rect x="6" y="2" width="1" height="1" fill="#0A0A0A"></rect>
    <rect x="5" y="3" width="1" height="1" fill="#0A0A0A"></rect>
    <rect x="6" y="3" width="1" height="1" fill="#0A0A0A"></rect>
    <rect x="5" y="4" width="1" height="1" fill="#0A0A0A"></rect>
    <rect x="6" y="4" width="1" height="1" fill="#0A0A0A"></rect>
    <rect x="0" y="5" width="1" height="1" fill="#0A0A0A"></rect>
    <rect x="1" y="5" width="1" height="1" fill="#0A0A0A"></rect>
    <rect x="5" y="5" width="1" height="1" fill="#0A0A0A"></rect>
    <rect x="6" y="5" width="1" height="1" fill="#0A0A0A"></rect>
    <rect x="0" y="6" width="1" height="1" fill="#0A0A0A"></rect>
    <rect x="1" y="6" width="1" height="1" fill="#0A0A0A"></rect>
    <rect x="2" y="6" width="1" height="1" fill="#0A0A0A"></rect>
    <rect x="3" y="6" width="1" height="1" fill="#0A0A0A"></rect>
    <rect x="4" y="6" width="1" height="1" fill="#0A0A0A"></rect>
    <rect x="5" y="6" width="1" height="1" fill="#0A0A0A"></rect>
    <rect x="6" y="6" width="1" height="1" fill="#0A0A0A"></rect>
    <rect x="1" y="7" width="1" height="1" fill="#0A0A0A"></rect>
    <rect x="2" y="7" width="1" height="1" fill="#0A0A0A"></rect>
    <rect x="3" y="7" width="1" height="1" fill="#0A0A0A"></rect>
    <rect x="4" y="7" width="1" height="1" fill="#0A0A0A"></rect>
    <rect x="5" y="7" width="1" height="1" fill="#0A0A0A"></rect>
  </g>
</svg>